<svg width="16" height="16" viewBox="0 0 16 16" fill="none" xmlns="http://www.w3.org/2000/svg"><path fill-rule="evenodd" clip-rule="evenodd" d="M11.9693 9.57516C13.7668 8.9172 15 7.56333 15 6C15 3.79086 12.5376 2 9.5 2C6.46243 2 4 3.79086 4 6C4 6.14351 4.01039 6.28524 4.03066 6.42484C2.23317 7.0828 1 8.43667 1 10C1 12.2091 3.46243 14 6.5 14C9.53757 14 12 12.2091 12 10C12 9.85649 11.9896 9.71476 11.9693 9.57516ZM4.93351 8.23017C4.48119 8.37094 4.09324 8.56651 3.78726 8.78905C3.16717 9.24002 3 9.69295 3 10C3 10.307 3.16717 10.76 3.78726 11.211C4.40539 11.6605 5.35801 12 6.5 12C7.64199 12 8.59461 11.6605 9.21274 11.211C9.83283 10.76 10 10.307 10 10C10 9.99461 9.99994 9.98918 9.99984 9.9837C9.83521 9.99449 9.66849 10 9.5 10C7.5978 10 5.92114 9.2977 4.93351 8.23017Z" fill="white"/></svg>