<svg width="12" height="12" viewBox="0 0 12 12" fill="none" xmlns="http://www.w3.org/2000/svg">
<path d="M6.44557 1.2731C6.36023 1.10552 6.18807 1 6.00002 1C5.81196 1 5.63981 1.10552 5.55446 1.2731L4.02688 4.27273H1.00002C0.796949 4.27273 0.614052 4.39554 0.537203 4.58351C0.460354 4.77147 0.50482 4.98724 0.649721 5.12951L2.94452 7.38258L2.18214 10.3766C2.13403 10.5656 2.20016 10.7653 2.35155 10.8882C2.50295 11.0111 2.71198 11.0348 2.88702 10.9488L6.00002 9.42064L9.11301 10.9488C9.28806 11.0348 9.49709 11.0111 9.64848 10.8882C9.79987 10.7653 9.866 10.5656 9.81789 10.3766L9.05552 7.38258L11.3503 5.12951C11.4952 4.98724 11.5397 4.77147 11.4628 4.58351C11.386 4.39554 11.2031 4.27273 11 4.27273H7.97316L6.44557 1.2731Z" fill="#B3B4D0"/>
</svg>
