<svg width="12" height="12" fill="none" xmlns="http://www.w3.org/2000/svg"><path fill-rule="evenodd" clip-rule="evenodd" d="M7.513 3.548a.81.81 0 00.766.582h3.153c.549 0 .777.734.333 1.072l-2.551 1.94a.865.865 0 00-.292.942l.974 3.138c.17.546-.427 1-.871.662l-2.552-1.94a.776.776 0 00-.946 0l-2.552 1.94c-.443.338-1.04-.116-.871-.662l.975-3.138a.866.866 0 00-.293-.943L.234 5.201C-.209 4.865.02 4.13.567 4.13h3.154a.81.81 0 00.766-.582L5.462.409a.559.559 0 011.077 0l.974 3.139z" fill="#EFBA52"/></svg>