<?xml version="1.0" encoding="utf-8"?>
<svg
  class="svg-standalone-icon"
  width="100%"
  viewBox="78.01720522413856 164.20183935615236 142.81387382832503 141.5963212876953"
  xmlns="http://www.w3.org/2000/svg"
>
  <style>
    .svg-standalone-icon {
      fill: #d10754;
    }
  </style>
  <g
    data-paper-data='{"fillRule":"evenodd","fillRuleOriginal":"evenodd","isIcon":true,"iconStyle":"standalone","selectedEffects":{"container":"","transformation":"rotate0;translate50","pattern":""},"bounds":{"x":78.01720522413856,"y":164.20183935615236,"width":142.81387382832503,"height":141.5963212876953},"iconType":"initial","initialText":"TT","rawInitialId":199,"disableIconEffects":"true","monogramSpecial":"half-moon","suitableAsStandaloneIcon":true}'
    fill-rule="evenodd"
  >
    <path
      d="M78.01721,235c0,-39.10071 31.6974,-70.79816 70.79816,-70.79816c16.48953,0 31.66232,5.63731 43.69635,15.08958c-9.16409,-5.1025 -19.7188,-8.00987 -30.95266,-8.00987c-35.1907,0 -63.71834,28.52755 -63.71834,63.71844c0,35.1907 28.52765,63.71834 63.71834,63.71834c11.23386,0 21.78856,-2.90705 30.95266,-8.00997c-12.03403,9.45247 -27.20683,15.08979 -43.69635,15.08979c-39.10077,0 -70.79816,-31.6974 -70.79816,-70.79816zM220.83108,235c0,31.28057 -25.35765,56.63853 -56.63848,56.63853c-13.19164,0 -25.32991,-4.50985 -34.95718,-12.07181c7.33153,4.08231 15.7753,6.40794 24.76223,6.40794c28.15267,0 50.97419,-22.82214 50.97419,-50.97466c0,-28.15272 -22.82153,-50.97476 -50.97419,-50.97476c-8.98693,0 -17.4307,2.32589 -24.76223,6.40799c9.62727,-7.56171 21.76554,-12.07197 34.95718,-12.07197c31.28083,0 56.63848,25.35816 56.63848,56.63873zM136.99491,221.77072v35.19602h-8.79901v-35.19602h-10.95261v-8.73747h30.70423v8.73747zM170.65264,221.77072v35.19602h-8.79901v-35.19602h-10.95261v-8.73747h30.70423v8.73747z"
      data-paper-data='{"isPathIcon":true}'
    ></path>
  </g>
</svg>
