<svg width="32" height="32" viewBox="0 0 32 32" fill="none" xmlns="http://www.w3.org/2000/svg">
<path d="M3.26667 8.57437L15.981 1.1577L28.6952 8.57437V23.4256L15.981 30.8423L3.26667 23.4256V8.57437Z" fill="#151136" stroke="#F2BF43" stroke-width="2"/>
<path fill-rule="evenodd" clip-rule="evenodd" d="M18.5528 19.3387C18.5528 18.775 18.353 18.3423 17.9536 18.0406C17.5541 17.7389 16.8351 17.4206 15.7965 17.0858C14.7579 16.7509 13.9357 16.421 13.3298 16.0961C11.6787 15.2075 10.8532 14.0106 10.8532 12.5054C10.8532 11.7229 11.0746 11.025 11.5173 10.4116C11.96 9.79827 12.5958 9.31919 13.4247 8.97437C14.2536 8.62956 15.184 8.45715 16.2159 8.45715C17.2545 8.45715 18.1799 8.64448 18.9922 9.01913C19.8044 9.39379 20.4352 9.9226 20.8846 10.6056C21.334 11.2886 21.5587 12.0644 21.5587 12.9331H18.5627C18.5627 12.27 18.353 11.7544 17.9336 11.3864C17.5142 11.0184 16.925 10.8344 16.166 10.8344C15.4336 10.8344 14.8644 10.9885 14.4583 11.2969C14.0522 11.6052 13.8491 12.0114 13.8491 12.5153C13.8491 12.9861 14.0871 13.3807 14.5632 13.699C15.0392 14.0173 15.7399 14.3157 16.6653 14.5942C18.3697 15.1047 19.6113 15.738 20.3903 16.4939C21.1692 17.2499 21.5587 18.1915 21.5587 19.3188C21.5587 20.572 21.0827 21.5551 20.1306 22.2679C19.1786 22.9807 17.897 23.3372 16.2858 23.3372C15.1673 23.3372 14.1487 23.1333 13.23 22.7254C12.3112 22.3176 11.6105 21.759 11.1278 21.0495C10.6451 20.3399 10.4038 19.5177 10.4038 18.5827H13.4097C13.4097 20.1808 14.3684 20.9798 16.2858 20.9798C16.9982 20.9798 17.5541 20.8356 17.9536 20.5472C18.353 20.2587 18.5528 19.8559 18.5528 19.3387Z" fill="#F2BF43"/>
</svg>
